<?xml version="1.0" encoding="UTF-8"?>
<svg id="Ebene_1" data-name="Ebene 1" xmlns="http://www.w3.org/2000/svg" viewBox="0 0 144.19 90.4">
  <defs>
    <style>
      .cls-1 {
        fill: #e9511b;
      }
    </style>
  </defs>
  <g>
    <path class="cls-1" d="M112.25,76.52v1.96h10.33v4.98h-10.33v1.99h10.33v4.95h-16.63v-18.84h16.63v4.95h-10.33Z"/>
    <path class="cls-1" d="M144.19,77.54c0,3.31-3.04,5.92-6.4,5.92h-6.49v6.94h-6.3v-18.84h13.05c3.82,0,6.14,2.21,6.14,5.97ZM137.89,77.49c0-.65-.43-.94-1.02-.94h-5.57v1.94h5.57c.59,0,1.02-.4,1.02-1Z"/>
    <path class="cls-1" d="M90.15,90.37v-6.93h2.96l3.98,6.97h6.84l-4.52-7.45c2.23-.89,3.9-2.91,3.9-5.41,0-3.77-2.31-5.97-6.14-5.97h-13.32v13.14l6.3,5.66ZM90.15,76.52h5.84c.59,0,1.02.3,1.02.97,0,.62-.43,1.02-1.02,1.02h-5.84v-1.99Z"/>
    <g>
      <path class="cls-1" d="M6.3,76.54v1.94h10.25v4.98H6.3v6.94H0v-18.84h16.55v4.98H6.3Z"/>
      <path class="cls-1" d="M18.97,71.57h6.3v18.84h-6.3v-18.84Z"/>
      <path class="cls-1" d="M27.83,71.57h6.3l7.48,9.8h.19v-9.8h6.3v18.84h-6.3l-7.45-9.47h-.22v9.47h-6.3v-18.84Z"/>
      <path class="cls-1" d="M63.13,88.49h-6.78l-.51,1.91h-6.54l5.49-18.84h9.9l5.49,18.84h-6.54l-.51-1.91ZM61.79,83.46l-1.83-6.92h-.43l-1.83,6.92h4.09Z"/>
      <polygon class="cls-1" points="81.01 84.6 81.02 85.42 77.69 85.42 77.69 71.57 71.39 71.57 71.39 90.4 87.47 90.4 81.01 84.6"/>
    </g>
  </g>
  <g>
    <g>
      <path class="cls-1" d="M86.24,34.44l-10-10c-1.18-1.18-2.77-1.84-4.44-1.84H26.9l15.06,15.06h26.39l22.62,22.64h21.11l-25.85-25.86Z"/>
      <path class="cls-1" d="M80.33,15.06h0c2.08,0,3.77,1.69,3.77,3.77,0,.82-.27,1.58-.71,2.2l10.73,10.62c3.13-3.36,5.05-7.87,5.05-12.83,0-10.4-8.43-18.83-18.83-18.83H26.9l15.06,15.06h10.04s9.87,0,9.87,0c0,0,0,0,0,0h18.45Z"/>
    </g>
    <path class="cls-1" d="M117.29,58.39c0,1.03-.67,1.89-1.87,1.89s-1.91-.87-1.91-1.89.71-1.89,1.91-1.89,1.87.87,1.87,1.89ZM115.42,59.79c.84,0,1.32-.62,1.32-1.4s-.48-1.4-1.32-1.4-1.36.62-1.36,1.4.52,1.4,1.36,1.4ZM116.25,59.07l-.34-.32c-.12.12-.24.18-.41.18-.3,0-.57-.19-.57-.53,0-.36.26-.55.57-.55.17,0,.29.06.41.17l.33-.31c-.21-.21-.45-.32-.74-.32-.59,0-1.05.37-1.05,1.01s.47.99,1.05.99c.31,0,.54-.12.75-.33Z"/>
  </g>
</svg>