<?xml version="1.0" encoding="UTF-8"?>
<svg id="Ebene_1" data-name="Ebene 1" xmlns="http://www.w3.org/2000/svg" viewBox="0 0 85.18 60.3">
  <defs>
    <style>
      .cls-1 {
        fill: #e9511b;
      }
    </style>
  </defs>
  <path class="cls-1" d="M59.34,34.44l-10-10c-1.18-1.18-2.77-1.84-4.44-1.84H0l15.06,15.06h26.39l22.62,22.64h21.11l-25.85-25.86Z"/>
  <path class="cls-1" d="M53.43,15.06h0c2.08,0,3.77,1.69,3.77,3.77,0,.82-.27,1.58-.71,2.2l10.73,10.62c3.13-3.36,5.05-7.87,5.05-12.83,0-10.4-8.43-18.83-18.83-18.83H0l15.06,15.06h10.04s9.87,0,9.87,0c0,0,0,0,0,0h18.45Z"/>
</svg>